G04 #@! TF.FileFunction,Legend,Bot*
%FSLAX46Y46*%
G04 Gerber Fmt 4.6, Leading zero omitted, Abs format (unit mm)*
G04 Created by KiCad (PCBNEW 4.0.2+dfsg1-stable) date Fri 15 Jul 2016 15:34:48 BRT*
%MOMM*%
G01*
G04 APERTURE LIST*
%ADD10C,0.100000*%
%ADD11C,0.150000*%
G04 APERTURE END LIST*
D10*
D11*
X99910000Y-105545000D02*
X99910000Y-106545000D01*
X98210000Y-106545000D02*
X98210000Y-105545000D01*
X125310000Y-105545000D02*
X125310000Y-106545000D01*
X123610000Y-106545000D02*
X123610000Y-105545000D01*
X150710000Y-105545000D02*
X150710000Y-106545000D01*
X149010000Y-106545000D02*
X149010000Y-105545000D01*
X176110000Y-105545000D02*
X176110000Y-106545000D01*
X174410000Y-106545000D02*
X174410000Y-105545000D01*
X129960000Y-136390000D02*
X129960000Y-135390000D01*
X131660000Y-135390000D02*
X131660000Y-136390000D01*
X104560000Y-136660000D02*
X104560000Y-135660000D01*
X106260000Y-135660000D02*
X106260000Y-136660000D01*
X155360000Y-136390000D02*
X155360000Y-135390000D01*
X157060000Y-135390000D02*
X157060000Y-136390000D01*
X80430000Y-136390000D02*
X80430000Y-135390000D01*
X82130000Y-135390000D02*
X82130000Y-136390000D01*
X179490000Y-136390000D02*
X179490000Y-135390000D01*
X181190000Y-135390000D02*
X181190000Y-136390000D01*
X101517143Y-105878334D02*
X101564762Y-105830715D01*
X101612381Y-105687858D01*
X101612381Y-105592620D01*
X101564762Y-105449762D01*
X101469524Y-105354524D01*
X101374286Y-105306905D01*
X101183810Y-105259286D01*
X101040952Y-105259286D01*
X100850476Y-105306905D01*
X100755238Y-105354524D01*
X100660000Y-105449762D01*
X100612381Y-105592620D01*
X100612381Y-105687858D01*
X100660000Y-105830715D01*
X100707619Y-105878334D01*
X101612381Y-106830715D02*
X101612381Y-106259286D01*
X101612381Y-106545000D02*
X100612381Y-106545000D01*
X100755238Y-106449762D01*
X100850476Y-106354524D01*
X100898095Y-106259286D01*
X126917143Y-105878334D02*
X126964762Y-105830715D01*
X127012381Y-105687858D01*
X127012381Y-105592620D01*
X126964762Y-105449762D01*
X126869524Y-105354524D01*
X126774286Y-105306905D01*
X126583810Y-105259286D01*
X126440952Y-105259286D01*
X126250476Y-105306905D01*
X126155238Y-105354524D01*
X126060000Y-105449762D01*
X126012381Y-105592620D01*
X126012381Y-105687858D01*
X126060000Y-105830715D01*
X126107619Y-105878334D01*
X126107619Y-106259286D02*
X126060000Y-106306905D01*
X126012381Y-106402143D01*
X126012381Y-106640239D01*
X126060000Y-106735477D01*
X126107619Y-106783096D01*
X126202857Y-106830715D01*
X126298095Y-106830715D01*
X126440952Y-106783096D01*
X127012381Y-106211667D01*
X127012381Y-106830715D01*
X152317143Y-105878334D02*
X152364762Y-105830715D01*
X152412381Y-105687858D01*
X152412381Y-105592620D01*
X152364762Y-105449762D01*
X152269524Y-105354524D01*
X152174286Y-105306905D01*
X151983810Y-105259286D01*
X151840952Y-105259286D01*
X151650476Y-105306905D01*
X151555238Y-105354524D01*
X151460000Y-105449762D01*
X151412381Y-105592620D01*
X151412381Y-105687858D01*
X151460000Y-105830715D01*
X151507619Y-105878334D01*
X151412381Y-106211667D02*
X151412381Y-106830715D01*
X151793333Y-106497381D01*
X151793333Y-106640239D01*
X151840952Y-106735477D01*
X151888571Y-106783096D01*
X151983810Y-106830715D01*
X152221905Y-106830715D01*
X152317143Y-106783096D01*
X152364762Y-106735477D01*
X152412381Y-106640239D01*
X152412381Y-106354524D01*
X152364762Y-106259286D01*
X152317143Y-106211667D01*
X177717143Y-105878334D02*
X177764762Y-105830715D01*
X177812381Y-105687858D01*
X177812381Y-105592620D01*
X177764762Y-105449762D01*
X177669524Y-105354524D01*
X177574286Y-105306905D01*
X177383810Y-105259286D01*
X177240952Y-105259286D01*
X177050476Y-105306905D01*
X176955238Y-105354524D01*
X176860000Y-105449762D01*
X176812381Y-105592620D01*
X176812381Y-105687858D01*
X176860000Y-105830715D01*
X176907619Y-105878334D01*
X177145714Y-106735477D02*
X177812381Y-106735477D01*
X176764762Y-106497381D02*
X177479048Y-106259286D01*
X177479048Y-106878334D01*
X129067143Y-135723334D02*
X129114762Y-135675715D01*
X129162381Y-135532858D01*
X129162381Y-135437620D01*
X129114762Y-135294762D01*
X129019524Y-135199524D01*
X128924286Y-135151905D01*
X128733810Y-135104286D01*
X128590952Y-135104286D01*
X128400476Y-135151905D01*
X128305238Y-135199524D01*
X128210000Y-135294762D01*
X128162381Y-135437620D01*
X128162381Y-135532858D01*
X128210000Y-135675715D01*
X128257619Y-135723334D01*
X128162381Y-136628096D02*
X128162381Y-136151905D01*
X128638571Y-136104286D01*
X128590952Y-136151905D01*
X128543333Y-136247143D01*
X128543333Y-136485239D01*
X128590952Y-136580477D01*
X128638571Y-136628096D01*
X128733810Y-136675715D01*
X128971905Y-136675715D01*
X129067143Y-136628096D01*
X129114762Y-136580477D01*
X129162381Y-136485239D01*
X129162381Y-136247143D01*
X129114762Y-136151905D01*
X129067143Y-136104286D01*
X103667143Y-135993334D02*
X103714762Y-135945715D01*
X103762381Y-135802858D01*
X103762381Y-135707620D01*
X103714762Y-135564762D01*
X103619524Y-135469524D01*
X103524286Y-135421905D01*
X103333810Y-135374286D01*
X103190952Y-135374286D01*
X103000476Y-135421905D01*
X102905238Y-135469524D01*
X102810000Y-135564762D01*
X102762381Y-135707620D01*
X102762381Y-135802858D01*
X102810000Y-135945715D01*
X102857619Y-135993334D01*
X102762381Y-136850477D02*
X102762381Y-136660000D01*
X102810000Y-136564762D01*
X102857619Y-136517143D01*
X103000476Y-136421905D01*
X103190952Y-136374286D01*
X103571905Y-136374286D01*
X103667143Y-136421905D01*
X103714762Y-136469524D01*
X103762381Y-136564762D01*
X103762381Y-136755239D01*
X103714762Y-136850477D01*
X103667143Y-136898096D01*
X103571905Y-136945715D01*
X103333810Y-136945715D01*
X103238571Y-136898096D01*
X103190952Y-136850477D01*
X103143333Y-136755239D01*
X103143333Y-136564762D01*
X103190952Y-136469524D01*
X103238571Y-136421905D01*
X103333810Y-136374286D01*
X154467143Y-135723334D02*
X154514762Y-135675715D01*
X154562381Y-135532858D01*
X154562381Y-135437620D01*
X154514762Y-135294762D01*
X154419524Y-135199524D01*
X154324286Y-135151905D01*
X154133810Y-135104286D01*
X153990952Y-135104286D01*
X153800476Y-135151905D01*
X153705238Y-135199524D01*
X153610000Y-135294762D01*
X153562381Y-135437620D01*
X153562381Y-135532858D01*
X153610000Y-135675715D01*
X153657619Y-135723334D01*
X153562381Y-136056667D02*
X153562381Y-136723334D01*
X154562381Y-136294762D01*
X79537143Y-135723334D02*
X79584762Y-135675715D01*
X79632381Y-135532858D01*
X79632381Y-135437620D01*
X79584762Y-135294762D01*
X79489524Y-135199524D01*
X79394286Y-135151905D01*
X79203810Y-135104286D01*
X79060952Y-135104286D01*
X78870476Y-135151905D01*
X78775238Y-135199524D01*
X78680000Y-135294762D01*
X78632381Y-135437620D01*
X78632381Y-135532858D01*
X78680000Y-135675715D01*
X78727619Y-135723334D01*
X79060952Y-136294762D02*
X79013333Y-136199524D01*
X78965714Y-136151905D01*
X78870476Y-136104286D01*
X78822857Y-136104286D01*
X78727619Y-136151905D01*
X78680000Y-136199524D01*
X78632381Y-136294762D01*
X78632381Y-136485239D01*
X78680000Y-136580477D01*
X78727619Y-136628096D01*
X78822857Y-136675715D01*
X78870476Y-136675715D01*
X78965714Y-136628096D01*
X79013333Y-136580477D01*
X79060952Y-136485239D01*
X79060952Y-136294762D01*
X79108571Y-136199524D01*
X79156190Y-136151905D01*
X79251429Y-136104286D01*
X79441905Y-136104286D01*
X79537143Y-136151905D01*
X79584762Y-136199524D01*
X79632381Y-136294762D01*
X79632381Y-136485239D01*
X79584762Y-136580477D01*
X79537143Y-136628096D01*
X79441905Y-136675715D01*
X79251429Y-136675715D01*
X79156190Y-136628096D01*
X79108571Y-136580477D01*
X79060952Y-136485239D01*
X178597143Y-135723334D02*
X178644762Y-135675715D01*
X178692381Y-135532858D01*
X178692381Y-135437620D01*
X178644762Y-135294762D01*
X178549524Y-135199524D01*
X178454286Y-135151905D01*
X178263810Y-135104286D01*
X178120952Y-135104286D01*
X177930476Y-135151905D01*
X177835238Y-135199524D01*
X177740000Y-135294762D01*
X177692381Y-135437620D01*
X177692381Y-135532858D01*
X177740000Y-135675715D01*
X177787619Y-135723334D01*
X178692381Y-136199524D02*
X178692381Y-136390000D01*
X178644762Y-136485239D01*
X178597143Y-136532858D01*
X178454286Y-136628096D01*
X178263810Y-136675715D01*
X177882857Y-136675715D01*
X177787619Y-136628096D01*
X177740000Y-136580477D01*
X177692381Y-136485239D01*
X177692381Y-136294762D01*
X177740000Y-136199524D01*
X177787619Y-136151905D01*
X177882857Y-136104286D01*
X178120952Y-136104286D01*
X178216190Y-136151905D01*
X178263810Y-136199524D01*
X178311429Y-136294762D01*
X178311429Y-136485239D01*
X178263810Y-136580477D01*
X178216190Y-136628096D01*
X178120952Y-136675715D01*
M02*
