M48
;DRILL file {KiCad 4.0.2+dfsg1-stable} date Fri 15 Jul 2016 15:35:05 BRT
;FORMAT={3:3/ absolute / metric / keep zeros}
FMAT,2
METRIC,TZ
T1C0.800
T2C1.016
%
G90
G05
M71
T1
X088900Y-106680
X088900Y-109220
X088900Y-111760
X088900Y-114300
X088900Y-116840
X088900Y-119380
X088900Y-121920
X088900Y-124460
X096520Y-106680
X096520Y-109220
X096520Y-111760
X096520Y-114300
X096520Y-116840
X096520Y-119380
X096520Y-121920
X096520Y-124460
X114300Y-106680
X114300Y-109220
X114300Y-111760
X114300Y-114300
X114300Y-116840
X114300Y-119380
X114300Y-121920
X114300Y-124460
X121920Y-106680
X121920Y-109220
X121920Y-111760
X121920Y-114300
X121920Y-116840
X121920Y-119380
X121920Y-121920
X121920Y-124460
X139700Y-106680
X139700Y-109220
X139700Y-111760
X139700Y-114300
X139700Y-116840
X139700Y-119380
X139700Y-121920
X139700Y-124460
X147320Y-106680
X147320Y-109220
X147320Y-111760
X147320Y-114300
X147320Y-116840
X147320Y-119380
X147320Y-121920
X147320Y-124460
X165100Y-106680
X165100Y-109220
X165100Y-111760
X165100Y-114300
X165100Y-116840
X165100Y-119380
X165100Y-121920
X165100Y-124460
X172720Y-106680
X172720Y-109220
X172720Y-111760
X172720Y-114300
X172720Y-116840
X172720Y-119380
X172720Y-121920
X172720Y-124460
T2
X078740Y-134620
X078740Y-137160
X083820Y-111760
X083820Y-114300
X083820Y-116840
X083820Y-119380
X083820Y-121920
X083820Y-129540
X083820Y-132080
X083820Y-134620
X083820Y-137160
X086360Y-129540
X086360Y-132080
X086360Y-134620
X086360Y-137160
X088900Y-129540
X088900Y-132080
X088900Y-134620
X088900Y-137160
X091440Y-129540
X091440Y-132080
X091440Y-134620
X091440Y-137160
X093980Y-129540
X093980Y-132080
X093980Y-134620
X093980Y-137160
X096520Y-129540
X096520Y-132080
X096520Y-134620
X096520Y-137160
X099060Y-129540
X099060Y-132080
X099060Y-134620
X099060Y-137160
X101600Y-129540
X101600Y-132080
X101600Y-134620
X101600Y-137160
X109220Y-129540
X109220Y-132080
X109220Y-134620
X109220Y-137160
X111760Y-129540
X111760Y-132080
X111760Y-134620
X111760Y-137160
X114300Y-129540
X114300Y-132080
X114300Y-134620
X114300Y-137160
X116840Y-129540
X116840Y-132080
X116840Y-134620
X116840Y-137160
X119380Y-129540
X119380Y-132080
X119380Y-134620
X119380Y-137160
X121920Y-129540
X121920Y-132080
X121920Y-134620
X121920Y-137160
X124460Y-129540
X124460Y-132080
X124460Y-134620
X124460Y-137160
X127000Y-129540
X127000Y-132080
X127000Y-134620
X127000Y-137160
X134620Y-129540
X134620Y-132080
X134620Y-134620
X134620Y-137160
X137160Y-129540
X137160Y-132080
X137160Y-134620
X137160Y-137160
X139700Y-129540
X139700Y-132080
X139700Y-134620
X139700Y-137160
X142240Y-129540
X142240Y-132080
X142240Y-134620
X142240Y-137160
X144780Y-129540
X144780Y-132080
X144780Y-134620
X144780Y-137160
X147320Y-129540
X147320Y-132080
X147320Y-134620
X147320Y-137160
X149860Y-129540
X149860Y-132080
X149860Y-134620
X149860Y-137160
X152400Y-129540
X152400Y-132080
X152400Y-134620
X152400Y-137160
X160020Y-129540
X160020Y-132080
X160020Y-134620
X160020Y-137160
X162560Y-129540
X162560Y-132080
X162560Y-134620
X162560Y-137160
X165100Y-129540
X165100Y-132080
X165100Y-134620
X165100Y-137160
X167640Y-129540
X167640Y-132080
X167640Y-134620
X167640Y-137160
X170180Y-129540
X170180Y-132080
X170180Y-134620
X170180Y-137160
X172720Y-129540
X172720Y-132080
X172720Y-134620
X172720Y-137160
X175260Y-129540
X175260Y-132080
X175260Y-134620
X175260Y-137160
X177800Y-111760
X177800Y-114300
X177800Y-116840
X177800Y-119380
X177800Y-121920
X177800Y-129540
X177800Y-132080
X177800Y-134620
X177800Y-137160
T0
M30
